<?xml version="1.0" encoding="utf-8"?>

<!DOCTYPE svg PUBLIC "-//W3C//DTD SVG 1.1//EN" "http://www.w3.org/Graphics/SVG/1.1/DTD/svg11.dtd">
<!-- Uploaded to: SVG Repo, www.svgrepo.com, Generator: SVG Repo Mixer Tools -->
<svg fill="#000000" height="800px" width="800px" version="1.1" id="Layer_1" xmlns="http://www.w3.org/2000/svg" xmlns:xlink="http://www.w3.org/1999/xlink" 
	 viewBox="0 0 100 100" enable-background="new 0 0 100 100" xml:space="preserve">
<path d="M75.4,17.8c1.5-1.5,1.5-3.8,0-5.3c-1.5-1.5-3.8-1.5-5.3,0l-5.8,5.8l5.3,5.3L75.4,17.8z M53.9,5.4c0-2.1-1.7-3.7-3.7-3.7
	c-2.1,0-3.7,1.7-3.7,3.7v8.2h7.5V5.4z M71.9,39.4h8.2c2.1,0,3.7-1.7,3.7-3.7c0-2.1-1.7-3.7-3.7-3.7h-8.2V39.4z M50.1,54.1
	c10.2,0,18.4-8.3,18.4-18.4s-8.3-18.4-18.4-18.4c-10.2,0-18.4,8.3-18.4,18.4S39.9,54.1,50.1,54.1z M64.3,52.9l5.8,5.8
	c1.5,1.5,3.8,1.5,5.3,0c1.5-1.5,1.5-3.8,0-5.3l-5.8-5.8L64.3,52.9z M46.3,65.8c0,2.1,1.7,3.7,3.7,3.7c2.1,0,3.7-1.7,3.7-3.7v-8.2
	h-7.5V65.8z M19.9,39.4h8.2v-7.5h-8.2c-2.1,0-3.7,1.7-3.7,3.7C16.1,37.7,17.8,39.4,19.9,39.4z M30.6,23.6l5.3-5.3l-5.8-5.8
	c-1.5-1.5-3.8-1.5-5.3,0h0c-1.5,1.5-1.5,3.8,0,5.3L30.6,23.6z M24.8,53.4c-1.5,1.5-1.5,3.8,0,5.3h0c1.5,1.5,3.8,1.5,5.3,0l5.8-5.8
	l-5.3-5.3L24.8,53.4z M93.6,93.4h-4.5L73.1,76c-1.4-1.4-3.7-1.4-5.1,0L56.1,87.9c-0.2,0.2-0.3,0.3-0.5,0.4v-0.1L39,86.6l0,0
	c-1.2-1.9-3.2-3.1-5.6-3.1c-2.8,0-5.2,1.8-6.2,4.3l0,0c-0.8,1.7-2.4,2.3-6.1,2.3h-0.3c-1.3-3.6-4.7-6.3-8.8-6.3
	c-5.1,0-9.3,4.2-9.3,9.3c0,1.9,0.6,3.6,1.5,5.1H62c2.8,0,4.9-1.9,5.9-4.4l3.7-9.3l3.6,3.7l8.9,9c0.7,0.7,1.6,1,2.5,1
	c0,0,0.1,0,0.1,0v0h10.5v-1.2C97.3,95.1,95.6,93.4,93.6,93.4z"/>
</svg>