<?xml version="1.0" encoding="iso-8859-1"?>
<!-- Uploaded to: SVG Repo, www.svgrepo.com, Generator: SVG Repo Mixer Tools -->
<svg fill="#000000" height="800px" width="800px" version="1.1" id="Layer_1" xmlns="http://www.w3.org/2000/svg" xmlns:xlink="http://www.w3.org/1999/xlink" 
	 viewBox="0 0 512 512" xml:space="preserve">
<g>
	<g>
		<g>
			<path d="M512,96V32c0-11.782-9.551-21.333-21.333-21.333H21.333C9.551,10.667,0,20.218,0,32v64
				c0,11.782,9.551,21.333,21.333,21.333v341.333C9.551,458.667,0,468.218,0,480s9.551,21.333,21.333,21.333h21.333h426.667h21.333
				c11.782,0,21.333-9.551,21.333-21.333s-9.551-21.333-21.333-21.333V117.333C502.449,117.333,512,107.782,512,96z M42.667,53.333
				h426.667v21.333H42.667V53.333z M448,458.667H64V117.333h384V458.667z"/>
			<path d="M128,266.667h85.333c11.782,0,21.333-9.551,21.333-21.333V160c0-11.782-9.551-21.333-21.333-21.333H128
				c-11.782,0-21.333,9.551-21.333,21.333v85.333C106.667,257.115,116.218,266.667,128,266.667z M149.333,181.333H192V224h-42.667
				V181.333z"/>
			<path d="M298.667,266.667H384c11.782,0,21.333-9.551,21.333-21.333V160c0-11.782-9.551-21.333-21.333-21.333h-85.333
				c-11.782,0-21.333,9.551-21.333,21.333v85.333C277.333,257.115,286.885,266.667,298.667,266.667z M320,181.333h42.667V224H320
				V181.333z"/>
			<path d="M128,437.333h85.333c11.782,0,21.333-9.551,21.333-21.333v-85.333c0-11.782-9.551-21.333-21.333-21.333H128
				c-11.782,0-21.333,9.551-21.333,21.333V416C106.667,427.782,116.218,437.333,128,437.333z M149.333,352H192v42.667h-42.667V352z"
				/>
			<path d="M298.667,437.333H384c11.782,0,21.333-9.551,21.333-21.333v-85.333c0-11.782-9.551-21.333-21.333-21.333h-85.333
				c-11.782,0-21.333,9.551-21.333,21.333V416C277.333,427.782,286.885,437.333,298.667,437.333z M320,352h42.667v42.667H320V352z"
				/>
		</g>
	</g>
</g>
</svg>