<?xml version="1.0" ?>
<!DOCTYPE svg  PUBLIC '-//W3C//DTD SVG 1.1//EN'  'http://www.w3.org/Graphics/SVG/1.1/DTD/svg11.dtd'>
<!-- Uploaded to: SVG Repo, www.svgrepo.com, Generator: SVG Repo Mixer Tools -->
<svg fill="#000000" width="800px" height="800px" viewBox="0 0 512 512" enable-background="new 0 0 512 512" id="Weight_x5F_control" version="1.1" xml:space="preserve" xmlns="http://www.w3.org/2000/svg" xmlns:xlink="http://www.w3.org/1999/xlink">
<g>
<path d="M420.149,111.637l-9.576-20.451h-77.705V79.569c0-4.962-4.036-8.999-8.998-8.999h-43.166v10h42.164v10.615h-37.829v10   h37.829v25.652h10v-25.652h71.346l4.894,10.451H353.68v318.061h134V111.637H420.149z M477.68,419.697h-114V121.637h114V419.697z"/>
<rect height="10.168" width="10.168" x="73.929" y="150.149"/>
<rect height="10.168" width="10.168" x="138.835" y="150.149"/>
<rect height="10.168" width="10.168" x="106.382" y="150.149"/>
<rect height="10.168" width="10.168" x="73.929" y="232.96"/>
<rect height="10.168" width="10.168" x="138.835" y="232.96"/>
<rect height="10.168" width="10.168" x="106.382" y="232.96"/>
<rect height="10.168" width="10.168" x="73.929" y="274.366"/>
<rect height="10.168" width="10.168" x="138.835" y="274.366"/>
<rect height="10.168" width="10.168" x="106.382" y="274.366"/>
<rect height="10.168" width="10.168" x="73.929" y="191.555"/>
<rect height="10.168" width="10.168" x="138.835" y="191.555"/>
<rect height="10.168" width="10.168" x="106.382" y="191.555"/>
<rect height="10.168" width="10.168" x="222.929" y="150.149"/>
<rect height="10.168" width="10.168" x="287.835" y="150.149"/>
<rect height="10.168" width="10.168" x="255.382" y="150.149"/>
<rect height="10.168" width="10.168" x="222.929" y="232.96"/>
<rect height="10.168" width="10.168" x="287.835" y="232.96"/>
<rect height="10.168" width="10.168" x="255.382" y="232.96"/>
<rect height="10.168" width="10.168" x="222.929" y="274.366"/>
<rect height="10.168" width="10.168" x="287.835" y="274.366"/>
<rect height="10.168" width="10.168" x="255.382" y="274.366"/>
<rect height="10.168" width="10.168" x="222.929" y="191.555"/>
<rect height="10.168" width="10.168" x="287.835" y="191.555"/>
<rect height="10.168" width="10.168" x="255.382" y="191.555"/>
<path d="M34.32,79.569c0-8.207,6.677-14.884,14.884-14.884h64.064c-8.905,13.685-14.087,30.004-14.087,47.513v5h174.711v-5   c0-17.509-5.182-33.828-14.086-47.513h64.063c8.207,0,14.885,6.677,14.885,14.884v5.533h10v-5.533   c0-13.721-11.163-24.884-24.885-24.884H252.23c-16.023-18.279-39.532-29.843-65.693-29.843s-49.67,11.563-65.693,29.843h-71.64   c-13.721,0-24.884,11.163-24.884,24.884v170.92h10V79.569z M178.474,107.198c1.625-2.771,4.628-4.642,8.066-4.642   c3.434,0,6.433,1.865,8.059,4.642H178.474z M205.289,107.198c-1.708-6.791-7.002-12.155-13.752-13.964V64.545h-10v28.69   c-6.748,1.812-12.038,7.174-13.745,13.963h-37.928c2.542-29.043,26.98-51.904,56.673-51.904c29.691,0,54.13,22.861,56.672,51.904   H205.289z M186.537,34.843c40.975,0,74.61,32.022,77.195,72.355h-10.497c-2.568-34.563-31.49-61.904-66.698-61.904   s-64.13,27.342-66.699,61.904h-10.496C111.927,66.865,145.563,34.843,186.537,34.843z"/>
<rect height="17.285" width="10" x="24.32" y="263.104"/>
<path d="M49.204,379.119h274.665c13.722,0,24.885-11.167,24.885-24.894V107.852h-10v246.374c0,8.213-6.678,14.894-14.885,14.894   H49.204c-8.207,0-14.884-6.681-14.884-14.894v-60.754h-10v60.754C24.32,367.952,35.483,379.119,49.204,379.119z"/>
<path d="M50.205,80.57h43.619v-10h-44.62c-4.962,0-8.999,4.037-8.999,8.999v274.656c0,4.968,4.037,9.009,8.999,9.009H323.87   c4.962,0,8.998-4.041,8.998-9.009V141.788h-10v211.446H50.205V80.57z"/>
<path d="M57.431,332.274c0,7.523,6.12,13.644,13.643,13.644c7.523,0,13.644-6.12,13.644-13.644c0-7.522-6.12-13.643-13.644-13.643   C63.551,318.632,57.431,324.752,57.431,332.274z M74.717,332.274c0,2.01-1.635,3.644-3.644,3.644s-3.643-1.634-3.643-3.644   c0-2.008,1.634-3.643,3.643-3.643S74.717,330.267,74.717,332.274z"/>
<path d="M301.019,345.918c7.523,0,13.644-6.12,13.644-13.644c0-7.522-6.12-13.643-13.644-13.643s-13.644,6.12-13.644,13.643   C287.375,339.798,293.495,345.918,301.019,345.918z M301.019,328.632c2.009,0,3.644,1.635,3.644,3.643   c0,2.01-1.635,3.644-3.644,3.644s-3.644-1.634-3.644-3.644C297.375,330.267,299.01,328.632,301.019,328.632z"/>
<path d="M313.516,435.136v-26.512c0-9.382-7.634-17.015-17.018-17.015h-93.962v10h93.962c3.869,0,7.018,3.147,7.018,7.015   c0,1.875-0.73,3.637-2.057,4.963c-1.327,1.328-3.089,2.059-4.961,2.059H277.51l-1.021,0.029l-0.079,0.031   c-4.458,0.27-8.661,2.293-11.661,5.645c-0.772,0.863-1.458,1.809-2.035,2.806c-0.883,1.521-1.514,3.172-1.889,4.903H211.29v-13.725   h-10v13.725h-49.131v-13.725h-10v13.725h-48.92v-13.725h-10v13.725H34.32v-27.45h151.943v-10H24.32v47.45h236.101v23.473   c0,13.578,11.047,24.625,24.625,24.625h196.967v-47.45l-169.242-0.001C313.248,438.267,313.516,436.733,313.516,435.136z    M271.364,429.172c0.238-0.411,0.52-0.8,0.836-1.153c1.334-1.49,3.242-2.344,5.236-2.344l19.062-0.029   c2.462,0,4.839-0.537,7.018-1.526v11.017c0,2.521-2.05,4.57-4.57,4.57h-21.509c-1.874,0-3.634-0.729-4.96-2.057   c-1.316-1.314-2.046-3.059-2.055-4.961C270.422,431.45,270.747,430.235,271.364,429.172z M472.013,449.707v27.45h-42.897v-13.726   h-10v13.726h-42.898v-13.726h-10v13.726h-42.108v-13.726h-10v13.726h-29.063c-8.064,0-14.625-6.561-14.625-14.625v-14.349   c2.177,0.987,4.552,1.522,7.016,1.522h20.471L472.013,449.707z"/>
<path d="M469.705,128.41h-96.667v33h96.667V128.41z M459.705,151.41h-76.667v-13h76.667V151.41z"/>
<rect height="10" width="56.667" x="378.038" y="265.034"/>
<rect height="10" width="86.667" x="378.038" y="242.31"/>
<rect height="10" width="86.667" x="378.038" y="196.86"/>
<rect height="10" width="15.957" x="448.748" y="219.585"/>
<rect height="10" width="58.71" x="378.038" y="219.585"/>
<rect height="10" width="61.957" x="402.748" y="174.136"/>
<rect height="10" width="14.044" x="378.038" y="174.136"/>
<polygon points="421.825,319.187 411.825,319.187 411.825,330.808 383.038,330.808 383.038,302.021 406.372,302.021    406.372,292.021 373.038,292.021 373.038,340.808 421.825,340.808  "/>
<polygon points="399.5,313.977 391.781,306.259 384.711,313.329 399.5,328.119 435.923,291.695 428.853,284.624  "/>
<polygon points="421.825,389.403 411.825,389.403 411.825,401.023 383.038,401.023 383.038,372.237 406.372,372.237    406.372,362.237 373.038,362.237 373.038,411.023 421.825,411.023  "/>
<polygon points="391.781,376.475 384.711,383.546 399.5,398.335 435.923,361.912 428.853,354.841 399.5,384.192  "/>
</g>
</svg>