<?xml version="1.0" encoding="utf-8"?>
<!-- Uploaded to: SVG Repo, www.svgrepo.com, Generator: SVG Repo Mixer Tools -->
<svg fill="#000000" height="800px" width="800px" version="1.2" baseProfile="tiny" id="Layer_1" xmlns="http://www.w3.org/2000/svg" xmlns:xlink="http://www.w3.org/1999/xlink"
	  viewBox="-217 51 256 256" xml:space="preserve">
<path d="M-87.3,117.5c-17,0-30.9-13.7-30.9-30.7c0-16.9,13.8-30.6,30.9-30.6c17.1,0,30.9,13.7,30.9,30.6
	C-56.4,103.8-70.2,117.5-87.3,117.5z"/>
<path d="M5.3,244.5L-19,159.8c-9.7-33.9-38.1-32.8-38.1-32.8h-60.4c0,0-28.3-1.1-38.1,32.8l-24.3,84.7c-2.3,7.9,2,14,9,15.9
	c6.9,2,14-1.5,15.8-7.8l23.6-82.6l11.6,0l-37.8,131.8h140.9L-54.7,170l11.5,0l23.7,82.6c1.8,6.3,8.9,9.8,15.8,7.8
	C3.3,258.4,7.6,252.4,5.3,244.5z M-41.6,248.3c0,25.2-20.4,45.7-45.7,45.7c-25.2,0-45.7-20.5-45.7-45.7c0-25.2,20.4-45.7,45.7-45.7
	C-62.1,202.6-41.6,223-41.6,248.3z"/>
<path d="M-77.5,237.1c-5.5-2.6-7.8-9.1-5.2-14.6c2.6-5.5,9.1-7.8,14.6-5.2c5.5,2.6,7.8,9.1,5.2,14.6
	C-65.5,237.4-72,239.7-77.5,237.1z"/>
<path d="M-67.2,252.4c-1.1,2.3-6.9,14.5-8,16.9c-3.2,6.8-11.4,9.8-18.3,6.5c-2.2-1.1-3.9-2.7-5.4-4.5c-2.2-2.7-3.6-10-3.6-10
	c-2.3,1.6-8.1,5.3-10.5,7c-2.2,1.5-5.2,1-6.8-1.2c-1.6-2.2-1-5.2,1.2-6.8c3.5-2.4,13.1-9,13.1-9c2.9-2.1,7-1.4,9,1.6l4.1,8.3
	l6.5-13.1l-5.7-1.7c-1.2-0.4-2.3-1.2-2.9-2.4l-5.6-10.7c-1.2-2.3-0.3-5.2,2-6.4c2.3-1.2,5.2-0.3,6.4,2c0,0,3.3,6.4,4.6,8.9
	c3.1,0.9,15.5,4.5,15.5,4.5c0.7,0.2,1.2,0.6,1.7,1C-66.9,245.4-65.7,249.2-67.2,252.4z"/>
</svg>