<?xml version="1.0" encoding="iso-8859-1"?>
<!-- Uploaded to: SVG Repo, www.svgrepo.com, Generator: SVG Repo Mixer Tools -->
<svg fill="#000000" height="800px" width="800px" version="1.1" id="Layer_1" xmlns="http://www.w3.org/2000/svg" xmlns:xlink="http://www.w3.org/1999/xlink" 
	 viewBox="0 0 493.72 493.72" xml:space="preserve">
<g>
	<g>
		<g>
			<path d="M423.664,120.904l-8.576-81.448c11.664-8.432,22.792-17.768,33.256-28.016L437.144,0
				c-51.16,50.12-118.744,77.72-190.28,77.72S107.744,50.12,56.584,0l-11.2,11.44c10.464,10.248,21.592,19.584,33.264,28.016
				l-8.584,81.448c-4.096,38.888-29.392,71.584-66.016,85.32l5.624,14.984c42.336-15.872,71.568-53.672,76.296-98.632l7.688-73.032
				c45.52,28.72,98.24,44.176,153.208,44.176s107.688-15.456,153.2-44.176l7.688,73.032c4.728,44.96,33.96,82.76,76.296,98.632
				l5.624-14.984C453.048,192.496,427.752,159.8,423.664,120.904z"/>
			<path d="M338.968,229.144l-11.872-47.504c7.384-32.664,14.288-43.272,14.288-43.288l-13.032-9.264
				c-0.272,0.384-1.24,1.816-2.68,4.696c-11.856,0.312-23.376,5.2-31.776,13.6L268.52,172.76c-5.704,5.696-13.592,8.96-21.656,8.96
				c-8.064,0-15.952-3.264-21.656-8.968l-25.376-25.376c-8.4-8.4-19.92-13.288-31.776-13.6c-1.44-2.872-2.4-4.304-2.68-4.696
				l-13.104,9.176c0.072,0.096,6.976,10.712,14.36,43.376l-11.872,47.504c-2.176,8.672-5.992,16.696-11.352,23.848
				c-10.672,14.24-16.544,31.864-16.544,49.64v8.144c0,22.096,8.608,42.872,24.232,58.504l3.032,3.032
				c4.192,4.192,7.816,8.936,10.76,14.08l25.976,45.464v61.872h16v-16h80v16h16v-61.872l25.976-45.472
				c2.944-5.144,6.56-9.88,10.76-14.08l3.032-3.032c15.624-15.624,24.232-36.4,24.232-58.496v-8.144
				c0-17.784-5.872-35.408-16.544-49.632C344.96,245.84,341.136,237.816,338.968,229.144z M188.52,158.688l25.376,25.376
				c8.68,8.68,20.696,13.656,32.968,13.656c12.272,0,24.288-4.976,32.968-13.656l25.376-25.376c3.768-3.776,8.536-6.352,13.64-7.752
				c-2.336,7.064-4.904,16.176-7.504,27.76l-34.992,58.328c-6.176,10.296-17.48,16.696-29.488,16.696s-23.312-6.4-29.496-16.696
				l-34.992-58.328c-2.6-11.584-5.168-20.688-7.504-27.76C179.976,152.336,184.744,154.912,188.52,158.688z M286.864,461.72h-80v-16
				h80V461.72z M273.48,381.72l4.368,16h-61.96l4.36-16H273.48z M224.728,365.72c3.176-9.464,12.056-16,22.136-16
				s18.952,6.536,22.136,16H224.728z M282.208,413.72l4.368,16H207.16l4.36-16H282.208z M350.864,310.768
				c0,17.816-6.944,34.576-19.544,47.184l-3.032,3.032c-5.2,5.2-9.688,11.072-13.336,17.456l-17.456,30.536l-12.6-46.2
				c-4.664-17.112-20.304-29.056-38.032-29.056c-17.728,0-33.368,11.944-38.032,29.056l-12.6,46.2l-17.456-30.536
				c-3.648-6.384-8.136-12.248-13.336-17.456l-3.032-3.032c-12.6-12.608-19.544-29.368-19.544-47.184v-8.144
				c0-14.344,4.744-28.56,13.344-40.04c6.656-8.864,11.392-18.816,14.072-29.568l7.664-30.616l25.712,42.856
				c9.056,15.088,25.616,24.464,43.208,24.464c17.592,0,34.152-9.376,43.208-24.464l25.712-42.856l7.664,30.616
				c2.68,10.76,7.416,20.704,14.072,29.568c8.6,11.48,13.344,25.696,13.344,40.04V310.768z"/>
			<path d="M222.864,277.72c-6.808,0-12.928,2.88-17.304,7.448c0.776-2.36,1.304-4.832,1.304-7.448c0-13.232-10.768-24-24-24
				s-24,10.768-24,24s10.768,24,24,24c6.808,0,12.928-2.88,17.304-7.448c-0.776,2.36-1.304,4.832-1.304,7.448
				c0,2.616,0.528,5.088,1.304,7.448c-4.376-4.568-10.496-7.448-17.304-7.448c-13.232,0-24,10.768-24,24s10.768,24,24,24
				s24-10.768,24-24c0-2.616-0.528-5.088-1.304-7.448c4.376,4.568,10.496,7.448,17.304,7.448c13.232,0,24-10.768,24-24
				S236.096,277.72,222.864,277.72z M182.864,285.72c-4.416,0-8-3.584-8-8c0-4.416,3.584-8,8-8s8,3.584,8,8
				C190.864,282.136,187.28,285.72,182.864,285.72z M182.864,333.72c-4.416,0-8-3.584-8-8c0-4.416,3.584-8,8-8s8,3.584,8,8
				C190.864,330.136,187.28,333.72,182.864,333.72z M222.864,309.72c-4.416,0-8-3.584-8-8c0-4.416,3.584-8,8-8s8,3.584,8,8
				C230.864,306.136,227.28,309.72,222.864,309.72z"/>
			<path d="M334.864,277.72c0-13.232-10.768-24-24-24s-24,10.768-24,24c0,2.616,0.528,5.088,1.304,7.448
				c-4.376-4.568-10.496-7.448-17.304-7.448c-13.232,0-24,10.768-24,24s10.768,24,24,24c6.808,0,12.928-2.88,17.304-7.448
				c-0.776,2.36-1.304,4.832-1.304,7.448c0,13.232,10.768,24,24,24s24-10.768,24-24s-10.768-24-24-24
				c-6.808,0-12.928,2.88-17.304,7.448c0.776-2.36,1.304-4.832,1.304-7.448c0-2.616-0.528-5.088-1.304-7.448
				c4.376,4.568,10.496,7.448,17.304,7.448C324.096,301.72,334.864,290.952,334.864,277.72z M270.864,309.72c-4.416,0-8-3.584-8-8
				c0-4.416,3.584-8,8-8c4.416,0,8,3.584,8,8C278.864,306.136,275.28,309.72,270.864,309.72z M310.864,317.72c4.416,0,8,3.584,8,8
				c0,4.416-3.584,8-8,8c-4.416,0-8-3.584-8-8C302.864,321.304,306.448,317.72,310.864,317.72z M310.864,285.72
				c-4.416,0-8-3.584-8-8c0-4.416,3.584-8,8-8c4.416,0,8,3.584,8,8C318.864,282.136,315.28,285.72,310.864,285.72z"/>
		</g>
	</g>
</g>
</svg>