<?xml version="1.0" encoding="utf-8"?>
<!-- Uploaded to: SVG Repo, www.svgrepo.com, Generator: SVG Repo Mixer Tools -->
<svg fill="#000000" height="800px" width="800px" version="1.1" id="_x31_" xmlns="http://www.w3.org/2000/svg" xmlns:xlink="http://www.w3.org/1999/xlink" 
	 viewBox="0 0 128 128" xml:space="preserve">
<g>
	<polygon points="14.5,89.2 14.5,66.7 4.3,66.7 4.3,122 14.5,122 14.5,99.4 112.5,99.4 112.5,122 122.7,122 122.7,99.4 122.7,89.3 
		122.7,89.2 	"/>
	<circle cx="27" cy="32.1" r="7.7"/>
	<path d="M25.6,41.7c0,0-0.8-0.1-1-0.1c-2.4,0-4.3,1.9-4.3,4.3c0,0.1,0,28.8,0,28.8c0,1.2,0.7,2.3,1.7,2.9c0.5,0.3,1.1,0.5,1.6,0.5
		c1.8,0,3.4-1.5,3.4-3.4v-2.1V53.2c0-0.6,0.4-1,1-1s1,0.4,1,1V71v3.7c0,1.2-0.5,2.4-1.2,3.4c-1,1.2-2.4,1.9-4.1,1.9
		c-0.5,0-1.8-0.2-2.3-0.3l0.8,1.6c0.2,0.3,0.3,0.6,0.6,0.9c0.9,1.2,2.3,1.8,3.7,1.8c1.1,0,2.1-0.4,3-1.1l2.3-1.8l15.3-12.5L62,82.7
		c1.9,1.8,5,1.7,6.8-0.2c1.8-1.9,1.7-5-0.2-6.8l-18-17c-1.8-1.7-4.5-1.8-6.3-0.2l-8.9,7.3c0.6-5.4,0.9-11.2,0.9-11.3
		C36.3,48.1,31.6,42.8,25.6,41.7z"/>
	<path d="M90.1,50.6c2.5,0,5.1-0.4,7.5-1.3c-9.3-3.2-16-11.9-16-22.2c0-10.4,6.7-19.2,16-22.2c-2.3-0.8-4.8-1.3-7.5-1.3
		c-12.9,0-23.5,10.5-23.5,23.5C66.6,40.1,77.2,50.6,90.1,50.6z"/>
	<polygon points="102.7,21.6 106,19.8 109.3,21.6 108.6,17.9 111.3,15.4 107.6,14.8 106,11.5 104.3,14.8 100.6,15.4 103.3,17.9 	"/>
	<polygon points="113.3,34.2 115.6,33 117.9,34.2 117.5,31.6 119.3,29.9 116.8,29.5 115.6,27.2 114.5,29.5 111.9,29.9 113.7,31.6 	
		"/>
	<polygon points="97.7,40.5 97.2,43.1 99.6,41.9 101.9,43.1 101.5,40.5 103.4,38.6 100.8,38.2 99.6,35.8 98.4,38.2 95.8,38.6 	"/>
</g>
</svg>