<?xml version="1.0" encoding="utf-8"?>
<!-- Uploaded to: SVG Repo, www.svgrepo.com, Generator: SVG Repo Mixer Tools -->
<svg fill="#000000" height="800px" width="800px" version="1.2" baseProfile="tiny" id="Layer_1" xmlns="http://www.w3.org/2000/svg" xmlns:xlink="http://www.w3.org/1999/xlink"
	  viewBox="0 0 256 256" xml:space="preserve">
<path id="XMLID_11_" d="M29.8,166.1c0.6-20-10.3-27.6-23.6-32.6C1.8,150.7,14,165,29.8,166.1"/>
<path id="XMLID_10_" d="M32.8,76.7c8.5-18.2,1.4-29.4-8.8-39.3C13.3,51.4,18.8,69.4,32.8,76.7"/>
<path id="XMLID_9_" d="M37.6,127.2c-0.6-20,10.3-27.6,23.6-32.6C65.6,111.8,53.4,126,37.6,127.2"/>
<path id="XMLID_8_" d="M37.6,158.1c-0.6-20,10.3-27.6,23.6-32.6C65.6,142.7,53.4,156.9,37.6,158.1"/>
<path id="XMLID_7_" d="M37.6,96.3c-0.6-20,10.3-27.6,23.6-32.6C65.6,80.9,53.4,95.2,37.6,96.3"/>
<path id="XMLID_6_" d="M29.8,135.3c0.6-20-10.3-27.6-23.6-32.6C1.8,119.8,14,134.1,29.8,135.3"/>
<path id="XMLID_5_" d="M29.8,104.4c0.6-20-10.3-27.6-23.6-32.6C1.8,89,14,103.2,29.8,104.4"/>
<path id="XMLID_16_" d="M179.9,255.4H72.5l53.7-93L179.9,255.4z"/>
<polygon id="XMLID_3_" points="14.2,192.1 241.7,130.2 238.3,117.7 10.8,179.6 "/>
<path id="XMLID_2_" d="M174.7,0.6c0,0,1.7,32.8,30.4,30C205.1,30.7,208.4,3.2,174.7,0.6"/>
<path id="XMLID_1_" d="M204.8,107.4c-3,4.3-8,7-13.6,7c-4.6,0-9.1-2.2-12.1-5.2c-6.2-6.8-14.2-21.9-14.2-21.9
	c-4.5-9.1-6.9-16.2-6.9-23.4c0-15.2,12.3-28.4,27.6-28.4c7.5,0,14.3,3,19.3,7.9c5-4.9,11.8-7.9,19.3-7.9c15.3,0,27.6,13.2,27.6,28.4
	c0,7.1-2.4,14.2-6.9,23.4c0,0-8,15.1-14.2,21.9c-3,3-7.5,5.2-12.1,5.2C212.8,114.4,207.8,111.6,204.8,107.4"/>
</svg>