<?xml version="1.0" encoding="iso-8859-1"?>
<!-- Uploaded to: SVG Repo, www.svgrepo.com, Generator: SVG Repo Mixer Tools -->
<!DOCTYPE svg PUBLIC "-//W3C//DTD SVG 1.1//EN" "http://www.w3.org/Graphics/SVG/1.1/DTD/svg11.dtd">
<svg fill="#000000" height="800px" width="800px" version="1.1" id="Capa_1" xmlns="http://www.w3.org/2000/svg" xmlns:xlink="http://www.w3.org/1999/xlink" 
	 viewBox="0 0 389.235 389.235" xml:space="preserve">
<path id="XMLID_409_" d="M202.777,157.659c4.971,0,9,4.029,9,9s-4.029,9-9,9h-14.012c-4.971,0-9-4.029-9-9s4.029-9,9-9H202.777z
	 M155.59,175.458c4.857,1.052,9.646-2.039,10.696-6.897l2.736-12.671c2.021-9.36,10.747-39.901,38.202-39.901h12.291
	c27.454,0,36.181,30.541,38.202,39.902l2.737,12.671c0.911,4.219,4.641,7.102,8.788,7.102c0.63,0,1.269-0.066,1.909-0.205
	c4.858-1.05,7.946-5.839,6.896-10.697l-2.737-12.67c-7.204-33.372-28.584-54.103-55.796-54.103h-12.291
	c-27.213,0-48.593,20.731-55.796,54.103l-2.736,12.671C147.643,169.62,150.73,174.409,155.59,175.458z M180.107,43.006
	c0-19.176,12.27-35.969,30.53-41.786c1.777-0.566,3.688-0.566,5.465,0c18.261,5.817,30.53,22.61,30.53,41.786
	c0,19.177-12.27,35.97-30.531,41.786c-0.889,0.283-1.81,0.425-2.731,0.425s-1.843-0.142-2.731-0.425
	C192.377,78.976,180.107,62.183,180.107,43.006z M198.107,43.006c0,10.321,6.025,19.471,15.263,23.595
	c9.237-4.124,15.263-13.273,15.263-23.595s-6.025-19.47-15.263-23.595C204.133,23.536,198.107,32.685,198.107,43.006z
	 M382.906,232.192c-4.744,1.474-9.791-1.174-11.268-5.92c-2.875-9.239-11.606-15.692-21.234-15.692H121.014
	c3.003,5.044,5.823,10.024,8.463,14.943h206.831c16.445,0,29.825,13.381,29.825,29.829c0,16.449-13.38,29.831-29.825,29.831h-1.213
	v85.257h11.268c4.971,0,9,4.029,9,9s-4.029,9-9,9H320.71c-4.971,0-9-4.029-9-9c0-3.685,2.215-6.852,5.385-8.244v-86.013H153.239
	c1.887,7.986,3.063,15.612,3.509,22.827c0.307,4.961-3.467,9.231-8.428,9.537c-4.967,0.311-9.231-3.467-9.538-8.428
	c-1.198-19.413-9.374-52.98-41.513-102.651c-1.791-2.768-1.925-6.294-0.349-9.189c1.575-2.896,4.608-4.699,7.905-4.699h245.578
	c17.429,0,33.229,11.655,38.422,28.345C390.303,225.67,387.652,230.715,382.906,232.192z M138.455,243.523
	c3.733,8.121,6.918,16.021,9.539,23.66h188.313c6.521,0,11.825-5.307,11.825-11.829c0-6.523-5.305-11.831-11.825-11.831H138.455z
	 M117.341,276.183c0,4.971-4.029,9-9,9h-59.3v86.013c3.17,1.393,5.384,4.56,5.384,8.244c0,4.971-4.029,9-9,9H19.772
	c-4.971,0-9-4.029-9-9s4.029-9,9-9h11.269v-85.257h-1.212C13.381,285.183,0,271.802,0,255.354c0-12.38,7.579-23.022,18.341-27.53
	c-8.306-5.376-14.741-13.553-17.916-23.511c-0.566-1.778-0.566-3.688,0-5.467c5.821-18.26,22.612-30.528,41.783-30.528
	c19.178,0,35.972,12.27,41.788,30.53c0.566,1.776,0.566,3.686,0,5.463c-2.748,8.63-7.947,15.921-14.691,21.212h19.895
	c4.971,0,9,4.029,9,9s-4.029,9-9,9h-59.37c-6.412,0-11.829,5.417-11.829,11.829c0,6.523,5.307,11.831,11.829,11.831h78.512
	C113.312,267.183,117.341,271.212,117.341,276.183z M18.617,201.579c4.126,9.237,13.273,15.264,23.591,15.264
	c10.322,0,19.473-6.025,23.597-15.264c-4.124-9.236-13.274-15.262-23.597-15.262C31.891,186.318,22.743,192.343,18.617,201.579z
	 M107.07,18.87c11.277,6.25,8.975,15.783-3.67,41.258C98.013,70.985,92.44,82.21,90.946,92.869
	c-1.97,14.051,3.605,25.146,16.124,32.085c1.383,0.766,2.879,1.13,4.355,1.13c3.165,0,6.236-1.674,7.88-4.639
	c2.409-4.348,0.839-9.825-3.509-12.235c-11.179-6.196-8.874-15.691,3.728-41.079c5.4-10.882,10.985-22.133,12.477-32.827
	c1.964-14.086-3.64-25.213-16.204-32.178c-4.347-2.407-9.825-0.839-12.235,3.509C101.152,10.983,102.723,16.46,107.07,18.87z
	 M66.051,124.953c1.383,0.767,2.879,1.131,4.355,1.131c3.165,0,6.236-1.674,7.879-4.639c2.41-4.348,0.84-9.825-3.508-12.234
	c-11.179-6.197-8.874-15.692,3.728-41.08c5.4-10.881,10.985-22.133,12.477-32.827c1.964-14.086-3.64-25.213-16.204-32.178
	c-4.347-2.407-9.825-0.839-12.235,3.509c-2.409,4.348-0.839,9.825,3.509,12.235c11.277,6.25,8.975,15.783-3.669,41.258
	C56.993,70.985,51.421,82.21,49.927,92.869C47.957,106.92,53.533,118.015,66.051,124.953z"/>
</svg>